<svg width="184" height="43" viewBox="0 0 184 43" fill="none" xmlns="http://www.w3.org/2000/svg">
<path d="M72.776 39L61.496 8.952H61.304C61.4 9.944 61.48 11.288 61.544 12.984C61.608 14.648 61.64 16.392 61.64 18.216V39H57.656V4.728H64.04L74.6 32.808H74.792L85.544 4.728H91.88V39H87.608V17.928C87.608 16.264 87.64 14.616 87.704 12.984C87.8 11.352 87.88 10.024 87.944 9H87.752L76.328 39H72.776ZM122.131 13.272V39H118.675L118.051 35.592H117.859C117.027 36.936 115.875 37.928 114.403 38.568C112.931 39.176 111.363 39.48 109.699 39.48C106.595 39.48 104.259 38.744 102.691 37.272C101.123 35.768 100.339 33.384 100.339 30.12V13.272H104.611V29.832C104.611 33.928 106.515 35.976 110.323 35.976C113.171 35.976 115.139 35.176 116.227 33.576C117.347 31.976 117.907 29.672 117.907 26.664V13.272H122.131ZM147.051 31.896C147.051 34.392 146.123 36.28 144.267 37.56C142.411 38.84 139.915 39.48 136.779 39.48C134.987 39.48 133.435 39.336 132.123 39.048C130.843 38.76 129.707 38.36 128.715 37.848V34.008C129.739 34.52 130.971 35 132.411 35.448C133.883 35.864 135.371 36.072 136.875 36.072C139.019 36.072 140.571 35.736 141.531 35.064C142.491 34.36 142.971 33.432 142.971 32.28C142.971 31.64 142.795 31.064 142.443 30.552C142.091 30.04 141.451 29.528 140.523 29.016C139.627 28.504 138.331 27.928 136.635 27.288C134.971 26.648 133.547 26.008 132.363 25.368C131.179 24.728 130.267 23.96 129.627 23.064C128.987 22.168 128.667 21.016 128.667 19.608C128.667 17.432 129.547 15.752 131.307 14.568C133.099 13.384 135.435 12.792 138.315 12.792C139.883 12.792 141.339 12.952 142.683 13.272C144.059 13.56 145.339 13.976 146.523 14.52L145.083 17.88C143.995 17.432 142.859 17.048 141.675 16.728C140.491 16.408 139.275 16.248 138.027 16.248C136.299 16.248 134.971 16.536 134.043 17.112C133.147 17.656 132.699 18.408 132.699 19.368C132.699 20.072 132.907 20.68 133.323 21.192C133.739 21.672 134.427 22.152 135.387 22.632C136.379 23.08 137.691 23.624 139.323 24.264C140.955 24.872 142.347 25.496 143.499 26.136C144.651 26.776 145.531 27.56 146.139 28.488C146.747 29.384 147.051 30.52 147.051 31.896ZM155.428 3.624C156.068 3.624 156.628 3.848 157.108 4.296C157.62 4.712 157.876 5.384 157.876 6.312C157.876 7.208 157.62 7.88 157.108 8.328C156.628 8.776 156.068 9 155.428 9C154.724 9 154.132 8.776 153.652 8.328C153.172 7.88 152.932 7.208 152.932 6.312C152.932 5.384 153.172 4.712 153.652 4.296C154.132 3.848 154.724 3.624 155.428 3.624ZM157.492 13.272V39H153.268V13.272H157.492ZM175.963 39.48C173.691 39.48 171.659 39.016 169.867 38.088C168.107 37.16 166.715 35.72 165.691 33.768C164.699 31.816 164.203 29.32 164.203 26.28C164.203 23.112 164.731 20.536 165.787 18.552C166.843 16.568 168.267 15.112 170.059 14.184C171.883 13.256 173.947 12.792 176.251 12.792C177.563 12.792 178.827 12.936 180.043 13.224C181.259 13.48 182.251 13.8 183.019 14.184L181.723 17.688C180.955 17.4 180.059 17.128 179.035 16.872C178.011 16.616 177.051 16.488 176.155 16.488C171.099 16.488 168.571 19.736 168.571 26.232C168.571 29.336 169.179 31.72 170.395 33.384C171.643 35.016 173.483 35.832 175.915 35.832C177.323 35.832 178.555 35.688 179.611 35.4C180.699 35.112 181.691 34.76 182.587 34.344V38.088C181.723 38.536 180.763 38.872 179.707 39.096C178.683 39.352 177.435 39.48 175.963 39.48Z" fill="white"/>
<rect y="33" width="10" height="10" fill="#59DC9D"/>
<rect x="16" y="33" width="10" height="10" fill="#FF3636"/>
<rect x="16" y="16" width="10" height="10" fill="#302CE0"/>
<rect x="32" y="33" width="10" height="10" fill="#C853BC"/>
<rect x="32" y="16" width="10" height="10" fill="#E2A9A9"/>
<rect x="32" width="10" height="10" fill="#C62C2C"/>
</svg>
